<svg xmlns="http://www.w3.org/2000/svg" xmlns:xlink="http://www.w3.org/1999/xlink" contentStyleType="text/css" data-diagram-type="CLASS" height="861px" preserveAspectRatio="none" style="width:1579px;height:861px;background:#FFFFFF;" version="1.1" viewBox="0 0 1579 861" width="1579px" zoomAndPan="magnify"><defs/><g><!--class geo--><g class="entity" data-entity="geo" data-source-line="5" data-uid="ent0002" id="entity_geo"><rect fill="#F1F1F1" height="124.2717" rx="2.5" ry="2.5" style="stroke:#181818;stroke-width:0.5;" width="187.7414" x="501" y="16.5"/><ellipse cx="560.2128" cy="32.5" fill="#ADD1B2" rx="11" ry="11" style="stroke:#181818;stroke-width:1;"/><path d="M556.5722,39 L556.5722,26.8594 L564.2284,26.8594 L564.2284,28.9844 L558.9472,28.9844 L558.9472,31.6406 L563.9628,31.6406 L563.9628,33.7656 L558.9472,33.7656 L558.9472,36.875 L564.2284,36.875 L564.2284,39 L556.5722,39 Z " fill="#000000"/><text fill="#000000" font-family="sans-serif" font-size="14" lengthAdjust="spacing" textLength="60.8158" x="580.7128" y="37.932">GeoPoint</text><line style="stroke:#181818;stroke-width:0.5;" x1="502" x2="687.7414" y1="48.5" y2="48.5"/><ellipse cx="512" cy="63.534" fill="#000000" rx="3" ry="3" style="stroke:#000000;stroke-width:1;"/><text fill="#000000" font-family="sans-serif" font-size="14" lengthAdjust="spacing" textLength="161.7414" x="521" y="67.4659">_id : ObjectId &#171;PK&#187; &#171;IDX&#187;</text><line style="stroke:#181818;stroke-width:1;" x1="502" x2="687.7414" y1="75.5679" y2="75.5679"/><ellipse cx="512" cy="90.6019" fill="#000000" rx="3" ry="3" style="stroke:#000000;stroke-width:1;"/><text fill="#000000" font-family="sans-serif" font-size="14" lengthAdjust="spacing" textLength="106.2876" x="521" y="94.5339">geohash : string</text><ellipse cx="512" cy="109.6698" fill="#000000" rx="3" ry="3" style="stroke:#000000;stroke-width:1;"/><text fill="#000000" font-family="sans-serif" font-size="14" lengthAdjust="spacing" textLength="57.3578" x="521" y="113.6018">lat : float</text><ellipse cx="512" cy="128.7377" fill="#000000" rx="3" ry="3" style="stroke:#000000;stroke-width:1;"/><text fill="#000000" font-family="sans-serif" font-size="14" lengthAdjust="spacing" textLength="61.5718" x="521" y="132.6697">lon : float</text></g><!--class warehouse--><g class="entity" data-entity="warehouse" data-source-line="13" data-uid="ent0003" id="entity_warehouse"><rect fill="#F1F1F1" height="124.2717" rx="2.5" ry="2.5" style="stroke:#181818;stroke-width:0.5;" width="197.9194" x="696" y="238.5"/><ellipse cx="753.2458" cy="254.5" fill="#ADD1B2" rx="11" ry="11" style="stroke:#181818;stroke-width:1;"/><path d="M749.6052,261 L749.6052,248.8594 L757.2615,248.8594 L757.2615,250.9844 L751.9802,250.9844 L751.9802,253.6406 L756.9958,253.6406 L756.9958,255.7656 L751.9802,255.7656 L751.9802,258.875 L757.2615,258.875 L757.2615,261 L749.6052,261 Z " fill="#000000"/><text fill="#000000" font-family="sans-serif" font-size="14" lengthAdjust="spacing" textLength="74.9277" x="773.7458" y="259.932">Warehouse</text><line style="stroke:#181818;stroke-width:0.5;" x1="697" x2="892.9194" y1="270.5" y2="270.5"/><ellipse cx="707" cy="285.534" fill="#000000" rx="3" ry="3" style="stroke:#000000;stroke-width:1;"/><text fill="#000000" font-family="sans-serif" font-size="14" lengthAdjust="spacing" textLength="161.7414" x="716" y="289.4659">_id : ObjectId &#171;PK&#187; &#171;IDX&#187;</text><line style="stroke:#181818;stroke-width:1;" x1="697" x2="892.9194" y1="297.5679" y2="297.5679"/><ellipse cx="707" cy="312.6019" fill="#000000" rx="3" ry="3" style="stroke:#000000;stroke-width:1;"/><text fill="#000000" font-family="sans-serif" font-size="14" lengthAdjust="spacing" textLength="86.9397" x="716" y="316.5339">name : string</text><ellipse cx="707" cy="331.6698" fill="#000000" rx="3" ry="3" style="stroke:#000000;stroke-width:1;"/><text fill="#000000" font-family="sans-serif" font-size="14" lengthAdjust="spacing" textLength="123.1715" x="716" y="335.6018">description : string</text><text fill="#000000" font-family="sans-serif" font-size="14" lengthAdjust="spacing" textLength="171.9194" x="716" y="354.6697">location_id : ObjectId &#171;FK&#187;</text></g><!--class category--><g class="entity" data-entity="category" data-source-line="21" data-uid="ent0004" id="entity_category"><rect fill="#F1F1F1" height="105.2038" rx="2.5" ry="2.5" style="stroke:#181818;stroke-width:0.5;" width="187.7414" x="967" y="26"/><ellipse cx="1026.7938" cy="42" fill="#ADD1B2" rx="11" ry="11" style="stroke:#181818;stroke-width:1;"/><path d="M1023.1532,48.5 L1023.1532,36.3594 L1030.8094,36.3594 L1030.8094,38.4844 L1025.5282,38.4844 L1025.5282,41.1406 L1030.5438,41.1406 L1030.5438,43.2656 L1025.5282,43.2656 L1025.5282,46.375 L1030.8094,46.375 L1030.8094,48.5 L1023.1532,48.5 Z " fill="#000000"/><text fill="#000000" font-family="sans-serif" font-size="14" lengthAdjust="spacing" textLength="59.6538" x="1047.2938" y="47.432">Category</text><line style="stroke:#181818;stroke-width:0.5;" x1="968" x2="1153.7414" y1="58" y2="58"/><ellipse cx="978" cy="73.034" fill="#000000" rx="3" ry="3" style="stroke:#000000;stroke-width:1;"/><text fill="#000000" font-family="sans-serif" font-size="14" lengthAdjust="spacing" textLength="161.7414" x="987" y="76.9659">_id : ObjectId &#171;PK&#187; &#171;IDX&#187;</text><line style="stroke:#181818;stroke-width:1;" x1="968" x2="1153.7414" y1="85.0679" y2="85.0679"/><ellipse cx="978" cy="100.1019" fill="#000000" rx="3" ry="3" style="stroke:#000000;stroke-width:1;"/><text fill="#000000" font-family="sans-serif" font-size="14" lengthAdjust="spacing" textLength="128.0015" x="987" y="104.0339">name : string &#171;IDX&#187;</text><ellipse cx="978" cy="119.1698" fill="#000000" rx="3" ry="3" style="stroke:#000000;stroke-width:1;"/><text fill="#000000" font-family="sans-serif" font-size="14" lengthAdjust="spacing" textLength="123.1715" x="987" y="123.1018">description : string</text></g><!--class client--><g class="entity" data-entity="client" data-source-line="28" data-uid="ent0005" id="entity_client"><rect fill="#F1F1F1" height="143.3396" rx="2.5" ry="2.5" style="stroke:#181818;stroke-width:0.5;" width="224.1273" x="7" y="7"/><ellipse cx="95.9767" cy="23" fill="#ADD1B2" rx="11" ry="11" style="stroke:#181818;stroke-width:1;"/><path d="M92.3361,29.5 L92.3361,17.3594 L99.9923,17.3594 L99.9923,19.4844 L94.7111,19.4844 L94.7111,22.1406 L99.7267,22.1406 L99.7267,24.2656 L94.7111,24.2656 L94.7111,27.375 L99.9923,27.375 L99.9923,29.5 L92.3361,29.5 Z " fill="#000000"/><text fill="#000000" font-family="sans-serif" font-size="14" lengthAdjust="spacing" textLength="37.6738" x="116.4767" y="28.432">Client</text><line style="stroke:#181818;stroke-width:0.5;" x1="8" x2="230.1273" y1="39" y2="39"/><ellipse cx="18" cy="54.034" fill="#000000" rx="3" ry="3" style="stroke:#000000;stroke-width:1;"/><text fill="#000000" font-family="sans-serif" font-size="14" lengthAdjust="spacing" textLength="161.7414" x="27" y="57.9659">_id : ObjectId &#171;PK&#187; &#171;IDX&#187;</text><line style="stroke:#181818;stroke-width:1;" x1="8" x2="230.1273" y1="66.0679" y2="66.0679"/><ellipse cx="18" cy="81.1019" fill="#000000" rx="3" ry="3" style="stroke:#000000;stroke-width:1;"/><text fill="#000000" font-family="sans-serif" font-size="14" lengthAdjust="spacing" textLength="86.9397" x="27" y="85.0339">name : string</text><ellipse cx="18" cy="100.1698" fill="#000000" rx="3" ry="3" style="stroke:#000000;stroke-width:1;"/><text fill="#000000" font-family="sans-serif" font-size="14" lengthAdjust="spacing" textLength="126.5735" x="27" y="104.1018">email : string &#171;IDX&#187;</text><text fill="#000000" font-family="sans-serif" font-size="14" lengthAdjust="spacing" textLength="91.7276" x="27" y="123.1697">phone : string</text><ellipse cx="18" cy="138.3056" fill="#000000" rx="3" ry="3" style="stroke:#000000;stroke-width:1;"/><text fill="#000000" font-family="sans-serif" font-size="14" lengthAdjust="spacing" textLength="198.1273" x="27" y="142.2376">registered_at : datetime &#171;IDX&#187;</text></g><!--class product--><g class="entity" data-entity="product" data-source-line="37" data-uid="ent0006" id="entity_product"><rect fill="#F1F1F1" height="162.4075" rx="2.5" ry="2.5" style="stroke:#181818;stroke-width:0.5;" width="244.0632" x="929" y="219.5"/><ellipse cx="1020.9027" cy="235.5" fill="#ADD1B2" rx="11" ry="11" style="stroke:#181818;stroke-width:1;"/><path d="M1017.2621,242 L1017.2621,229.8594 L1024.9183,229.8594 L1024.9183,231.9844 L1019.6371,231.9844 L1019.6371,234.6406 L1024.6527,234.6406 L1024.6527,236.7656 L1019.6371,236.7656 L1019.6371,239.875 L1024.9183,239.875 L1024.9183,242 L1017.2621,242 Z " fill="#000000"/><text fill="#000000" font-family="sans-serif" font-size="14" lengthAdjust="spacing" textLength="51.7578" x="1041.4027" y="240.932">Product</text><line style="stroke:#181818;stroke-width:0.5;" x1="930" x2="1172.0632" y1="251.5" y2="251.5"/><ellipse cx="940" cy="266.534" fill="#000000" rx="3" ry="3" style="stroke:#000000;stroke-width:1;"/><text fill="#000000" font-family="sans-serif" font-size="14" lengthAdjust="spacing" textLength="161.7414" x="949" y="270.4659">_id : ObjectId &#171;PK&#187; &#171;IDX&#187;</text><line style="stroke:#181818;stroke-width:1;" x1="930" x2="1172.0632" y1="278.5679" y2="278.5679"/><ellipse cx="940" cy="293.6019" fill="#000000" rx="3" ry="3" style="stroke:#000000;stroke-width:1;"/><text fill="#000000" font-family="sans-serif" font-size="14" lengthAdjust="spacing" textLength="86.9397" x="949" y="297.5339">name : string</text><ellipse cx="940" cy="312.6698" fill="#000000" rx="3" ry="3" style="stroke:#000000;stroke-width:1;"/><text fill="#000000" font-family="sans-serif" font-size="14" lengthAdjust="spacing" textLength="114.5196" x="949" y="316.6018">price : float &#171;IDX&#187;</text><text fill="#000000" font-family="sans-serif" font-size="14" lengthAdjust="spacing" textLength="123.1715" x="949" y="335.6697">description : string</text><text fill="#000000" font-family="sans-serif" font-size="14" lengthAdjust="spacing" textLength="218.0632" x="949" y="354.7376">category_id : ObjectId &#171;FK&#187; &#171;IDX&#187;</text><text fill="#000000" font-family="sans-serif" font-size="14" lengthAdjust="spacing" textLength="102.3956" x="949" y="373.8055">extra_info : Dict</text></g><!--class product_stock--><g class="entity" data-entity="product_stock" data-source-line="47" data-uid="ent0007" id="entity_product_stock"><rect fill="#F1F1F1" height="143.3396" rx="2.5" ry="2.5" style="stroke:#181818;stroke-width:0.5;" width="259.4491" x="691.5" y="451"/><ellipse cx="773.3927" cy="467" fill="#ADD1B2" rx="11" ry="11" style="stroke:#181818;stroke-width:1;"/><path d="M769.7521,473.5 L769.7521,461.3594 L777.4083,461.3594 L777.4083,463.4844 L772.1271,463.4844 L772.1271,466.1406 L777.1427,466.1406 L777.1427,468.2656 L772.1271,468.2656 L772.1271,471.375 L777.4083,471.375 L777.4083,473.5 L769.7521,473.5 Z " fill="#000000"/><text fill="#000000" font-family="sans-serif" font-size="14" lengthAdjust="spacing" textLength="87.1637" x="793.8927" y="472.432">ProductStock</text><line style="stroke:#181818;stroke-width:0.5;" x1="692.5" x2="949.9491" y1="483" y2="483"/><ellipse cx="702.5" cy="498.034" fill="#000000" rx="3" ry="3" style="stroke:#000000;stroke-width:1;"/><text fill="#000000" font-family="sans-serif" font-size="14" lengthAdjust="spacing" textLength="161.7414" x="711.5" y="501.9659">_id : ObjectId &#171;PK&#187; &#171;IDX&#187;</text><line style="stroke:#181818;stroke-width:1;" x1="692.5" x2="949.9491" y1="510.0679" y2="510.0679"/><ellipse cx="702.5" cy="525.1019" fill="#000000" rx="3" ry="3" style="stroke:#000000;stroke-width:1;"/><text fill="#000000" font-family="sans-serif" font-size="14" lengthAdjust="spacing" textLength="212.4352" x="711.5" y="529.0339">product_id : ObjectId &#171;FK&#187; &#171;IDX&#187;</text><ellipse cx="702.5" cy="544.1698" fill="#000000" rx="3" ry="3" style="stroke:#000000;stroke-width:1;"/><text fill="#000000" font-family="sans-serif" font-size="14" lengthAdjust="spacing" textLength="233.4491" x="711.5" y="548.1018">warehouse_id : ObjectId &#171;FK&#187; &#171;IDX&#187;</text><ellipse cx="702.5" cy="563.2377" fill="#000000" rx="3" ry="3" style="stroke:#000000;stroke-width:1;"/><text fill="#000000" font-family="sans-serif" font-size="14" lengthAdjust="spacing" textLength="82.9777" x="711.5" y="567.1697">quantity : int</text><ellipse cx="702.5" cy="582.3056" fill="#000000" rx="3" ry="3" style="stroke:#000000;stroke-width:1;"/><text fill="#000000" font-family="sans-serif" font-size="14" lengthAdjust="spacing" textLength="185.5693" x="711.5" y="586.2376">updated_at : datetime &#171;IDX&#187;</text></g><!--class order--><g class="entity" data-entity="order" data-source-line="56" data-uid="ent0008" id="entity_order"><rect fill="#F1F1F1" height="181.4754" rx="2.5" ry="2.5" style="stroke:#181818;stroke-width:0.5;" width="232.4012" x="175" y="210"/><ellipse cx="267.4487" cy="226" fill="#ADD1B2" rx="11" ry="11" style="stroke:#181818;stroke-width:1;"/><path d="M263.8081,232.5 L263.8081,220.3594 L271.4643,220.3594 L271.4643,222.4844 L266.1831,222.4844 L266.1831,225.1406 L271.1987,225.1406 L271.1987,227.2656 L266.1831,227.2656 L266.1831,230.375 L271.4643,230.375 L271.4643,232.5 L263.8081,232.5 Z " fill="#000000"/><text fill="#000000" font-family="sans-serif" font-size="14" lengthAdjust="spacing" textLength="39.0039" x="287.9487" y="231.432">Order</text><line style="stroke:#181818;stroke-width:0.5;" x1="176" x2="406.4012" y1="242" y2="242"/><ellipse cx="186" cy="257.034" fill="#000000" rx="3" ry="3" style="stroke:#000000;stroke-width:1;"/><text fill="#000000" font-family="sans-serif" font-size="14" lengthAdjust="spacing" textLength="161.7414" x="195" y="260.9659">_id : ObjectId &#171;PK&#187; &#171;IDX&#187;</text><line style="stroke:#181818;stroke-width:1;" x1="176" x2="406.4012" y1="269.0679" y2="269.0679"/><ellipse cx="186" cy="284.1019" fill="#000000" rx="3" ry="3" style="stroke:#000000;stroke-width:1;"/><text fill="#000000" font-family="sans-serif" font-size="14" lengthAdjust="spacing" textLength="196.0833" x="195" y="288.0339">client_id : ObjectId &#171;FK&#187; &#171;IDX&#187;</text><ellipse cx="186" cy="303.1698" fill="#000000" rx="3" ry="3" style="stroke:#000000;stroke-width:1;"/><text fill="#000000" font-family="sans-serif" font-size="14" lengthAdjust="spacing" textLength="180.0953" x="195" y="307.1018">created_at : datetime &#171;IDX&#187;</text><ellipse cx="186" cy="322.2377" fill="#000000" rx="3" ry="3" style="stroke:#000000;stroke-width:1;"/><text fill="#000000" font-family="sans-serif" font-size="14" lengthAdjust="spacing" textLength="131.0675" x="195" y="326.1697">status : OrderStatus</text><ellipse cx="186" cy="341.3056" fill="#000000" rx="3" ry="3" style="stroke:#000000;stroke-width:1;"/><text fill="#000000" font-family="sans-serif" font-size="14" lengthAdjust="spacing" textLength="105.5456" x="195" y="345.2376">total_sum : float</text><ellipse cx="186" cy="360.3735" fill="#000000" rx="3" ry="3" style="stroke:#000000;stroke-width:1;"/><text fill="#000000" font-family="sans-serif" font-size="14" lengthAdjust="spacing" textLength="93.8416" x="195" y="364.3055">contents : Dict</text><text fill="#000000" font-family="sans-serif" font-size="14" lengthAdjust="spacing" textLength="206.4012" x="195" y="383.3734">dest_location_id : ObjectId &#171;FK&#187;</text></g><!--class cart--><g class="entity" data-entity="cart" data-source-line="67" data-uid="ent0009" id="entity_cart"><rect fill="#F1F1F1" height="200.5433" rx="2.5" ry="2.5" style="stroke:#181818;stroke-width:0.5;" width="222.0833" x="568" y="654"/><ellipse cx="661.0227" cy="670" fill="#ADD1B2" rx="11" ry="11" style="stroke:#181818;stroke-width:1;"/><path d="M657.382,676.5 L657.382,664.3594 L665.0383,664.3594 L665.0383,666.4844 L659.757,666.4844 L659.757,669.1406 L664.7727,669.1406 L664.7727,671.2656 L659.757,671.2656 L659.757,674.375 L665.0383,674.375 L665.0383,676.5 L657.382,676.5 Z " fill="#000000"/><text fill="#000000" font-family="sans-serif" font-size="14" lengthAdjust="spacing" textLength="27.5379" x="681.5227" y="675.432">Cart</text><line style="stroke:#181818;stroke-width:0.5;" x1="569" x2="789.0833" y1="686" y2="686"/><ellipse cx="579" cy="701.034" fill="#000000" rx="3" ry="3" style="stroke:#000000;stroke-width:1;"/><text fill="#000000" font-family="sans-serif" font-size="14" lengthAdjust="spacing" textLength="161.7414" x="588" y="704.9659">_id : ObjectId &#171;PK&#187; &#171;IDX&#187;</text><line style="stroke:#181818;stroke-width:1;" x1="569" x2="789.0833" y1="713.0679" y2="713.0679"/><text fill="#000000" font-family="sans-serif" font-size="14" lengthAdjust="spacing" textLength="196.0833" x="588" y="732.0339">client_id : ObjectId &#171;FK&#187; &#171;IDX&#187;</text><text fill="#000000" font-family="sans-serif" font-size="14" lengthAdjust="spacing" textLength="175.4613" x="588" y="751.1018">session_id : ObjectId &#171;IDX&#187;</text><ellipse cx="579" cy="766.2377" fill="#000000" rx="3" ry="3" style="stroke:#000000;stroke-width:1;"/><text fill="#000000" font-family="sans-serif" font-size="14" lengthAdjust="spacing" textLength="160.6634" x="588" y="770.1697">status : CartStatus &#171;IDX&#187;</text><ellipse cx="579" cy="785.3056" fill="#000000" rx="3" ry="3" style="stroke:#000000;stroke-width:1;"/><text fill="#000000" font-family="sans-serif" font-size="14" lengthAdjust="spacing" textLength="93.8416" x="588" y="789.2376">contents : Dict</text><ellipse cx="579" cy="804.3735" fill="#000000" rx="3" ry="3" style="stroke:#000000;stroke-width:1;"/><text fill="#000000" font-family="sans-serif" font-size="14" lengthAdjust="spacing" textLength="180.0953" x="588" y="808.3055">created_at : datetime &#171;IDX&#187;</text><ellipse cx="579" cy="823.4415" fill="#000000" rx="3" ry="3" style="stroke:#000000;stroke-width:1;"/><text fill="#000000" font-family="sans-serif" font-size="14" lengthAdjust="spacing" textLength="144.5075" x="588" y="827.3734">updated_at : datetime</text><text fill="#000000" font-family="sans-serif" font-size="14" lengthAdjust="spacing" textLength="178.1913" x="588" y="846.4414">expires_at : datetime &#171;IDX&#187;</text></g><!--class product_order--><g class="entity" data-entity="product_order" data-source-line="79" data-uid="ent0010" id="entity_product_order"><rect fill="#F1F1F1" height="105.2038" rx="2.5" ry="2.5" style="stroke:#181818;stroke-width:0.5;" width="238.4352" x="172" y="470"/><ellipse cx="241.5868" cy="486" fill="#ADD1B2" rx="11" ry="11" style="stroke:#181818;stroke-width:1;"/><path d="M237.9461,492.5 L237.9461,480.3594 L245.6024,480.3594 L245.6024,482.4844 L240.3211,482.4844 L240.3211,485.1406 L245.3368,485.1406 L245.3368,487.2656 L240.3211,487.2656 L240.3211,490.375 L245.6024,490.375 L245.6024,492.5 L237.9461,492.5 Z " fill="#000000"/><text fill="#000000" font-family="sans-serif" font-size="14" lengthAdjust="spacing" textLength="90.7617" x="262.0868" y="491.432">ProductOrder</text><line style="stroke:#181818;stroke-width:0.5;" x1="173" x2="409.4352" y1="502" y2="502"/><ellipse cx="183" cy="517.034" fill="#000000" rx="3" ry="3" style="stroke:#000000;stroke-width:1;"/><text fill="#000000" font-family="sans-serif" font-size="14" lengthAdjust="spacing" textLength="161.7414" x="192" y="520.9659">_id : ObjectId &#171;PK&#187; &#171;IDX&#187;</text><line style="stroke:#181818;stroke-width:1;" x1="173" x2="409.4352" y1="529.0679" y2="529.0679"/><ellipse cx="183" cy="544.1019" fill="#000000" rx="3" ry="3" style="stroke:#000000;stroke-width:1;"/><text fill="#000000" font-family="sans-serif" font-size="14" lengthAdjust="spacing" textLength="212.4352" x="192" y="548.0339">product_id : ObjectId &#171;FK&#187; &#171;IDX&#187;</text><ellipse cx="183" cy="563.1698" fill="#000000" rx="3" ry="3" style="stroke:#000000;stroke-width:1;"/><text fill="#000000" font-family="sans-serif" font-size="14" lengthAdjust="spacing" textLength="197.0773" x="192" y="567.1018">order_id : ObjectId &#171;FK&#187; &#171;IDX&#187;</text></g><g class="entity" data-entity="GMN21" data-source-line="118" data-uid="ent0022" id="entity_GMN21"><path d="M1451.5,286.5 L1451.5,314.206 L1572.7691,314.206 L1572.7691,296.5 L1562.7691,286.5 L1451.5,286.5" fill="#FEFFDD" style="stroke:#181818;stroke-width:0.5;"/><path d="M1562.7691,286.5 L1562.7691,296.5 L1572.7691,296.5 L1562.7691,286.5" fill="#FEFFDD" style="stroke:#181818;stroke-width:1;"/><text fill="#000000" font-family="sans-serif" font-size="13" lengthAdjust="spacing" textLength="100.2691" x="1457.5" y="305.397">"Sharded by _id"</text></g><g class="entity" data-entity="GMN24" data-source-line="119" data-uid="ent0025" id="entity_GMN24"><path d="M442,286.5 L442,297 L407.02,301 L442,305 L442,314.206 A0,0 0 0 0 442,314.206 L652.3712,314.206 A0,0 0 0 0 652.3712,314.206 L652.3712,296.5 L642.3712,286.5 L442,286.5 A0,0 0 0 0 442,286.5" fill="#FEFFDD" style="stroke:#181818;stroke-width:0.5;"/><path d="M642.3712,286.5 L642.3712,296.5 L652.3712,296.5 L642.3712,286.5" fill="#FEFFDD" style="stroke:#181818;stroke-width:0.5;"/><text fill="#000000" font-family="sans-serif" font-size="13" lengthAdjust="spacing" textLength="189.3712" x="448" y="305.397">"Sharded by client_id (hashed)"</text></g><g class="entity" data-entity="GMN27" data-source-line="120" data-uid="ent0028" id="entity_GMN27"><path d="M825,740.5 L825,751 L790.19,755 L825,759 L825,768.206 A0,0 0 0 0 825,768.206 L1035.3712,768.206 A0,0 0 0 0 1035.3712,768.206 L1035.3712,750.5 L1025.3712,740.5 L825,740.5 A0,0 0 0 0 825,740.5" fill="#FEFFDD" style="stroke:#181818;stroke-width:0.5;"/><path d="M1025.3712,740.5 L1025.3712,750.5 L1035.3712,750.5 L1025.3712,740.5" fill="#FEFFDD" style="stroke:#181818;stroke-width:0.5;"/><text fill="#000000" font-family="sans-serif" font-size="13" lengthAdjust="spacing" textLength="189.3712" x="831" y="759.397">"Sharded by client_id (hashed)"</text></g><g class="entity" data-entity="GMN30" data-source-line="121" data-uid="ent0031" id="entity_GMN30"><path d="M445.5,508.5 L445.5,519 L410.35,523 L445.5,527 L445.5,536.206 A0,0 0 0 0 445.5,536.206 L656.7942,536.206 A0,0 0 0 0 656.7942,536.206 L656.7942,518.5 L646.7942,508.5 L445.5,508.5 A0,0 0 0 0 445.5,508.5" fill="#FEFFDD" style="stroke:#181818;stroke-width:0.5;"/><path d="M646.7942,508.5 L646.7942,518.5 L656.7942,518.5 L646.7942,508.5" fill="#FEFFDD" style="stroke:#181818;stroke-width:0.5;"/><text fill="#000000" font-family="sans-serif" font-size="13" lengthAdjust="spacing" textLength="190.2942" x="451.5" y="527.397">"Sharded by order_id (hashed)"</text></g><g class="entity" data-entity="GMN33" data-source-line="122" data-uid="ent0034" id="entity_GMN33"><path d="M986,508.5 L986,519 L950.78,523 L986,527 L986,536.206 A0,0 0 0 0 986,536.206 L1185.7242,536.206 A0,0 0 0 0 1185.7242,536.206 L1185.7242,518.5 L1175.7242,508.5 L986,508.5 A0,0 0 0 0 986,508.5" fill="#FEFFDD" style="stroke:#181818;stroke-width:0.5;"/><path d="M1175.7242,508.5 L1175.7242,518.5 L1185.7242,518.5 L1175.7242,508.5" fill="#FEFFDD" style="stroke:#181818;stroke-width:0.5;"/><text fill="#000000" font-family="sans-serif" font-size="13" lengthAdjust="spacing" textLength="178.7242" x="992" y="527.397">"Not sharded - small volume"</text></g><g class="entity" data-entity="GMN36" data-source-line="123" data-uid="ent0037" id="entity_GMN36"><path d="M1208,286.5 L1208,314.206 L1416.0831,314.206 L1416.0831,296.5 L1406.0831,286.5 L1208,286.5" fill="#FEFFDD" style="stroke:#181818;stroke-width:0.5;"/><path d="M1406.0831,286.5 L1406.0831,296.5 L1416.0831,296.5 L1406.0831,286.5" fill="#FEFFDD" style="stroke:#181818;stroke-width:1;"/><text fill="#000000" font-family="sans-serif" font-size="13" lengthAdjust="spacing" textLength="187.0831" x="1214" y="305.397">"Not sharded - reference data"</text></g><g class="entity" data-entity="GMN39" data-source-line="124" data-uid="ent0040" id="entity_GMN39"><path d="M724,64.5 L724,75 L689.1,79 L724,83 L724,92.206 A0,0 0 0 0 724,92.206 L932.0831,92.206 A0,0 0 0 0 932.0831,92.206 L932.0831,74.5 L922.0831,64.5 L724,64.5 A0,0 0 0 0 724,64.5" fill="#FEFFDD" style="stroke:#181818;stroke-width:0.5;"/><path d="M922.0831,64.5 L922.0831,74.5 L932.0831,74.5 L922.0831,64.5" fill="#FEFFDD" style="stroke:#181818;stroke-width:0.5;"/><text fill="#000000" font-family="sans-serif" font-size="13" lengthAdjust="spacing" textLength="187.0831" x="730" y="83.397">"Not sharded - reference data"</text></g><g class="entity" data-entity="GMN42" data-source-line="125" data-uid="ent0043" id="entity_GMN42"><path d="M266,64.5 L266,75 L231.3,79 L266,83 L266,92.206 A0,0 0 0 0 266,92.206 L465.7242,92.206 A0,0 0 0 0 465.7242,92.206 L465.7242,74.5 L455.7242,64.5 L266,64.5 A0,0 0 0 0 266,64.5" fill="#FEFFDD" style="stroke:#181818;stroke-width:0.5;"/><path d="M455.7242,64.5 L455.7242,74.5 L465.7242,74.5 L455.7242,64.5" fill="#FEFFDD" style="stroke:#181818;stroke-width:0.5;"/><text fill="#000000" font-family="sans-serif" font-size="13" lengthAdjust="spacing" textLength="178.7242" x="272" y="83.397">"Not sharded - small volume"</text></g><g class="entity" data-entity="GMN45" data-source-line="126" data-uid="ent0046" id="entity_GMN45"><path d="M1190,64.5 L1190,75 L1155.1,79 L1190,83 L1190,92.206 A0,0 0 0 0 1190,92.206 L1398.0831,92.206 A0,0 0 0 0 1398.0831,92.206 L1398.0831,74.5 L1388.0831,64.5 L1190,64.5 A0,0 0 0 0 1190,64.5" fill="#FEFFDD" style="stroke:#181818;stroke-width:0.5;"/><path d="M1388.0831,64.5 L1388.0831,74.5 L1398.0831,74.5 L1388.0831,64.5" fill="#FEFFDD" style="stroke:#181818;stroke-width:0.5;"/><text fill="#000000" font-family="sans-serif" font-size="13" lengthAdjust="spacing" textLength="187.0831" x="1196" y="83.397">"Not sharded - reference data"</text></g><!--link geo to warehouse--><g class="link" data-entity-1="geo" data-entity-2="warehouse" data-source-line="89" data-uid="lnk11" id="link_geo_warehouse"><path codeLine="89" d="M697.17,136 C709.52,136 710,136 710,136 C710,136 710,173.73 710,220.31" fill="none" id="geo-warehouse" style="stroke:#181818;stroke-width:1;"/><line style="stroke:#181818;stroke-width:1;" x1="693.17" x2="693.17" y1="140" y2="132"/><line style="stroke:#181818;stroke-width:1;" x1="696.17" x2="696.17" y1="140" y2="132"/><line style="stroke:#181818;stroke-width:1;" x1="697.17" x2="689.17" y1="136" y2="136"/><line style="stroke:#181818;stroke-width:1;" x1="710" x2="716" y1="230.31" y2="238.31"/><line style="stroke:#181818;stroke-width:1;" x1="710" x2="704" y1="230.31" y2="238.31"/><line style="stroke:#181818;stroke-width:1;" x1="710" x2="710" y1="230.31" y2="238.31"/><ellipse cx="710" cy="224.31" fill="none" rx="4" ry="4" style="stroke:#181818;stroke-width:1;"/><text fill="#000000" font-family="sans-serif" font-size="13" lengthAdjust="spacing" textLength="62.53" x="647" y="172.637">located_at</text></g><!--link category to product--><g class="link" data-entity-1="category" data-entity-2="product" data-source-line="92" data-uid="lnk12" id="link_category_product"><path codeLine="92" d="M1061,139.11 C1061,165.4 1061,171.79 1061,201.18" fill="none" id="category-product" style="stroke:#181818;stroke-width:1;"/><line style="stroke:#181818;stroke-width:1;" x1="1057" x2="1065" y1="135.11" y2="135.11"/><line style="stroke:#181818;stroke-width:1;" x1="1057" x2="1065" y1="138.11" y2="138.11"/><line style="stroke:#181818;stroke-width:1;" x1="1061" x2="1061" y1="139.11" y2="131.11"/><line style="stroke:#181818;stroke-width:1;" x1="1061" x2="1067" y1="211.18" y2="219.18"/><line style="stroke:#181818;stroke-width:1;" x1="1061" x2="1055" y1="211.18" y2="219.18"/><line style="stroke:#181818;stroke-width:1;" x1="1061" x2="1061" y1="211.18" y2="219.18"/><ellipse cx="1061" cy="205.18" fill="none" rx="4" ry="4" style="stroke:#181818;stroke-width:1;"/><text fill="#000000" font-family="sans-serif" font-size="13" lengthAdjust="spacing" textLength="69.81" x="991" y="171.047">categorizes</text></g><!--link client to order--><g class="link" data-entity-1="client" data-entity-2="order" data-source-line="95" data-uid="lnk13" id="link_client_order"><path codeLine="95" d="M203,158.27 C203,177.27 203,172.03 203,191.9" fill="none" id="client-order" style="stroke:#181818;stroke-width:1;"/><line style="stroke:#181818;stroke-width:1;" x1="199" x2="207" y1="154.27" y2="154.27"/><line style="stroke:#181818;stroke-width:1;" x1="199" x2="207" y1="157.27" y2="157.27"/><line style="stroke:#181818;stroke-width:1;" x1="203" x2="203" y1="158.27" y2="150.27"/><line style="stroke:#181818;stroke-width:1;" x1="203" x2="209" y1="201.9" y2="209.9"/><line style="stroke:#181818;stroke-width:1;" x1="203" x2="197" y1="201.9" y2="209.9"/><line style="stroke:#181818;stroke-width:1;" x1="203" x2="203" y1="201.9" y2="209.9"/><ellipse cx="203" cy="195.9" fill="none" rx="4" ry="4" style="stroke:#181818;stroke-width:1;"/><text fill="#000000" font-family="sans-serif" font-size="13" lengthAdjust="spacing" textLength="38.441" x="164" y="175.977">places</text></g><!--link client to cart--><g class="link" data-entity-1="client" data-entity-2="cart" data-source-line="98" data-uid="lnk14" id="link_client_cart"><path codeLine="98" d="M239.29,146 C399.71,146 667.33,146 667.33,146 C667.33,146 667.33,462.75 667.33,635.68" fill="none" id="client-cart" style="stroke:#181818;stroke-width:1;"/><line style="stroke:#181818;stroke-width:1;" x1="235.29" x2="235.29" y1="150" y2="142"/><line style="stroke:#181818;stroke-width:1;" x1="238.29" x2="238.29" y1="150" y2="142"/><line style="stroke:#181818;stroke-width:1;" x1="239.29" x2="231.29" y1="146" y2="146"/><line style="stroke:#181818;stroke-width:1;" x1="667.33" x2="673.33" y1="645.68" y2="653.68"/><line style="stroke:#181818;stroke-width:1;" x1="667.33" x2="661.33" y1="645.68" y2="653.68"/><line style="stroke:#181818;stroke-width:1;" x1="667.33" x2="667.33" y1="645.68" y2="653.68"/><ellipse cx="667.33" cy="639.68" fill="none" rx="4" ry="4" style="stroke:#181818;stroke-width:1;"/><text fill="#000000" font-family="sans-serif" font-size="13" lengthAdjust="spacing" textLength="32.344" x="634.33" y="196.717">owns</text></g><!--link product to product_stock--><g class="link" data-entity-1="product" data-entity-2="product_stock" data-source-line="101" data-uid="lnk15" id="link_product_product_stock"><path codeLine="101" d="M939.75,389.59 C939.75,412.26 939.75,410.72 939.75,432.8" fill="none" id="product-product_stock" style="stroke:#181818;stroke-width:1;"/><line style="stroke:#181818;stroke-width:1;" x1="935.75" x2="943.75" y1="385.59" y2="385.59"/><line style="stroke:#181818;stroke-width:1;" x1="935.75" x2="943.75" y1="388.59" y2="388.59"/><line style="stroke:#181818;stroke-width:1;" x1="939.75" x2="939.75" y1="389.59" y2="381.59"/><line style="stroke:#181818;stroke-width:1;" x1="939.75" x2="945.75" y1="442.8" y2="450.8"/><line style="stroke:#181818;stroke-width:1;" x1="939.75" x2="933.75" y1="442.8" y2="450.8"/><line style="stroke:#181818;stroke-width:1;" x1="939.75" x2="939.75" y1="442.8" y2="450.8"/><ellipse cx="939.75" cy="436.8" fill="none" rx="4" ry="4" style="stroke:#181818;stroke-width:1;"/><text fill="#000000" font-family="sans-serif" font-size="13" lengthAdjust="spacing" textLength="59.293" x="879.75" y="412.097">has_stock</text></g><!--link warehouse to product_stock--><g class="link" data-entity-1="warehouse" data-entity-2="product_stock" data-source-line="104" data-uid="lnk16" id="link_warehouse_product_stock"><path codeLine="104" d="M795,370.63 C795,398.08 795,404.52 795,432.97" fill="none" id="warehouse-product_stock" style="stroke:#181818;stroke-width:1;"/><line style="stroke:#181818;stroke-width:1;" x1="791" x2="799" y1="366.63" y2="366.63"/><line style="stroke:#181818;stroke-width:1;" x1="791" x2="799" y1="369.63" y2="369.63"/><line style="stroke:#181818;stroke-width:1;" x1="795" x2="795" y1="370.63" y2="362.63"/><line style="stroke:#181818;stroke-width:1;" x1="795" x2="801" y1="442.97" y2="450.97"/><line style="stroke:#181818;stroke-width:1;" x1="795" x2="789" y1="442.97" y2="450.97"/><line style="stroke:#181818;stroke-width:1;" x1="795" x2="795" y1="442.97" y2="450.97"/><ellipse cx="795" cy="436.97" fill="none" rx="4" ry="4" style="stroke:#181818;stroke-width:1;"/><text fill="#000000" font-family="sans-serif" font-size="13" lengthAdjust="spacing" textLength="37.713" x="757" y="402.697">stores</text></g><!--link geo to order--><g class="link" data-entity-1="geo" data-entity-2="order" data-source-line="107" data-uid="lnk17" id="link_geo_order"><path codeLine="107" d="M576.5,148.86 C576.5,185.62 576.5,217 576.5,217 C576.5,217 504.17,217 425.12,217" fill="none" id="geo-order" style="stroke:#181818;stroke-width:1;"/><line style="stroke:#181818;stroke-width:1;" x1="572.5" x2="580.5" y1="144.86" y2="144.86"/><line style="stroke:#181818;stroke-width:1;" x1="572.5" x2="580.5" y1="147.86" y2="147.86"/><line style="stroke:#181818;stroke-width:1;" x1="576.5" x2="576.5" y1="148.86" y2="140.86"/><line style="stroke:#181818;stroke-width:1;" x1="415.12" x2="407.12" y1="217" y2="223"/><line style="stroke:#181818;stroke-width:1;" x1="415.12" x2="407.12" y1="217" y2="211"/><line style="stroke:#181818;stroke-width:1;" x1="415.12" x2="407.12" y1="217" y2="217"/><ellipse cx="421.12" cy="217" fill="none" rx="4" ry="4" style="stroke:#181818;stroke-width:1;"/><text fill="#000000" font-family="sans-serif" font-size="13" lengthAdjust="spacing" textLength="74.9971" x="454.88" y="212.897">delivered_to</text></g><!--link product to product_order--><g class="link" data-entity-1="product" data-entity-2="product_order" data-source-line="110" data-uid="lnk18" id="link_product_product_order"><path codeLine="110" d="M920.92,372 C812.19,372 678.17,372 678.17,372 C678.17,372 678.17,490 678.17,490 C678.17,490 541.84,490 428.06,490" fill="none" id="product-product_order" style="stroke:#181818;stroke-width:1;"/><line style="stroke:#181818;stroke-width:1;" x1="924.92" x2="924.92" y1="368" y2="376"/><line style="stroke:#181818;stroke-width:1;" x1="921.92" x2="921.92" y1="368" y2="376"/><line style="stroke:#181818;stroke-width:1;" x1="920.92" x2="928.92" y1="372" y2="372"/><line style="stroke:#181818;stroke-width:1;" x1="418.06" x2="410.06" y1="490" y2="496"/><line style="stroke:#181818;stroke-width:1;" x1="418.06" x2="410.06" y1="490" y2="484"/><line style="stroke:#181818;stroke-width:1;" x1="418.06" x2="410.06" y1="490" y2="490"/><ellipse cx="424.06" cy="490" fill="none" rx="4" ry="4" style="stroke:#181818;stroke-width:1;"/><text fill="#000000" font-family="sans-serif" font-size="13" lengthAdjust="spacing" textLength="69.4981" x="608.17" y="435.577">included_in</text></g><!--link order to product_order--><g class="link" data-entity-1="order" data-entity-2="product_order" data-source-line="113" data-uid="lnk19" id="link_order_product_order"><path codeLine="113" d="M291,399.12 C291,425.85 291,428.22 291,451.73" fill="none" id="order-product_order" style="stroke:#181818;stroke-width:1;"/><line style="stroke:#181818;stroke-width:1;" x1="287" x2="295" y1="395.12" y2="395.12"/><line style="stroke:#181818;stroke-width:1;" x1="287" x2="295" y1="398.12" y2="398.12"/><line style="stroke:#181818;stroke-width:1;" x1="291" x2="291" y1="399.12" y2="391.12"/><line style="stroke:#181818;stroke-width:1;" x1="291" x2="297" y1="461.73" y2="469.73"/><line style="stroke:#181818;stroke-width:1;" x1="291" x2="285" y1="461.73" y2="469.73"/><line style="stroke:#181818;stroke-width:1;" x1="291" x2="291" y1="461.73" y2="469.73"/><ellipse cx="291" cy="455.73" fill="none" rx="4" ry="4" style="stroke:#181818;stroke-width:1;"/><text fill="#000000" font-family="sans-serif" font-size="13" lengthAdjust="spacing" textLength="51.7401" x="239" y="426.317">contains</text></g><!--link product to cart--><g class="link" data-entity-1="product" data-entity-2="cart" data-source-line="115" data-uid="lnk20" id="link_product_cart"><path codeLine="115" d="M968.25,399.9 C968.25,516.19 968.25,698 968.25,698 C968.25,698 879.57,698 798,698" fill="none" id="product-cart" style="stroke:#181818;stroke-width:1;stroke-dasharray:7,7;"/><line style="stroke:#181818;stroke-width:1;" x1="968.25" x2="962.25" y1="389.9" y2="381.9"/><line style="stroke:#181818;stroke-width:1;" x1="968.25" x2="974.25" y1="389.9" y2="381.9"/><line style="stroke:#181818;stroke-width:1;" x1="968.25" x2="968.25" y1="389.9" y2="381.9"/><ellipse cx="968.25" cy="395.9" fill="none" rx="4" ry="4" style="stroke:#181818;stroke-width:1;"/><line style="stroke:#181818;stroke-width:1;" x1="794" x2="794" y1="702" y2="694"/><line style="stroke:#181818;stroke-width:1;" x1="797" x2="797" y1="702" y2="694"/><line style="stroke:#181818;stroke-width:1;" x1="798" x2="790" y1="698" y2="698"/></g><!--link product to GMN21--><g class="link" data-entity-1="product" data-entity-2="GMN21" data-source-line="118" data-uid="lnk23" id="link_product_GMN21"><path d="M1173.03,348 C1309.6,348 1512,348 1512,348 C1512,348 1512,328.74 1512,314.75" fill="none" id="product-GMN21" style="stroke:#181818;stroke-width:1;stroke-dasharray:7,7;"/></g><!--link warehouse to GMN36--><g class="link" data-entity-1="warehouse" data-entity-2="GMN36" data-source-line="123" data-uid="lnk38" id="link_warehouse_GMN36"><path d="M809,238.1 C809,224.45 809,214 809,214 C809,214 1303,214 1303,214 C1303,214 1303,261.65 1303,286.22" fill="none" id="warehouse-GMN36" style="stroke:#181818;stroke-width:1;stroke-dasharray:7,7;"/></g></g></svg>